# xmcd
#
# Track frame offsets: 
#        150
#        18458
#        34582
#        45278
#        61607
#        70526
#        87649
#        98569
#        113916
#        132069
#        143076
#        159732
#        176533
#
# Disc length: 2470 seconds
#
# Revision: 0
# Processed by: cddbd v1.5.2PL0 Copyright (c) Steve Scherf et al.
# Submitted via: ExactAudioCopy v1.0b6
#
DISCID=9c09a40d
DTITLE=Riders in the Sky - America's Favorite Cowboy Songs
DYEAR=2012
DGENRE=Country
TTITLE0=Back in the Saddle Again
TTITLE1=Cool Water 
TTITLE2=I Ride an Old Paint 
TTITLE3=Red River Valley 
TTITLE4=Buffalo Gals - Bear Creek Hop 
TTITLE5=Streets of Laredo 
TTITLE6=How Does He Yodel? 
TTITLE7=Tumbling Tumbleweeds 
TTITLE8=Home on the Range 
TTITLE9=The Old Chisholm Trail 
TTITLE10=The Strawberry Roan 
TTITLE11=(Ghost) Riders in the Sky
TTITLE12=Woody's Roundup 
EXTD=
EXTT0=
EXTT1=
EXTT2=
EXTT3=
EXTT4=
EXTT5=
EXTT6=
EXTT7=
EXTT8=
EXTT9=
EXTT10=
EXTT11=
EXTT12=
PLAYORDER=
